<svg width="32" height="32" viewBox="0 0 32 32" fill="none" xmlns="http://www.w3.org/2000/svg">
<rect width="32" height="32" rx="16" fill="#55ACE3"/>
<path d="M24.48 11.92C23.92 12.16 23.2801 12.32 22.6401 12.4C23.2801 12 23.84 11.36 24.08 10.64C23.44 11.04 22.8 11.28 22 11.44C21.44 10.8 20.56 10.4 19.68 10.4C17.92 10.4 16.48 11.84 16.48 13.6C16.48 13.84 16.48 14.08 16.56 14.32C13.92 14.16 11.52 12.88 9.92004 10.96C9.68004 11.44 9.52004 12 9.52004 12.56C9.52004 13.68 10.08 14.64 10.96 15.2C10.4 15.2 9.92004 15.04 9.52004 14.8C9.52004 16.32 10.64 17.68 12.08 17.92C11.84 18 11.52 18 11.2 18C10.96 18 10.8 18 10.56 17.92C10.96 19.2 12.16 20.16 13.6 20.16C12.48 21.04 11.12 21.52 9.60005 21.52C9.36005 21.52 9.12005 21.52 8.80005 21.44C10.24 22.32 11.92 22.88 13.76 22.88C19.68 22.88 22.88 18 22.88 13.76V13.36C23.52 13.12 24.08 12.56 24.48 11.92Z" fill="white"/>
</svg>
